<mxfile host="app.diagrams.net" agent="Mozilla/5.0 (Windows NT 10.0; Win64; x64) AppleWebKit/537.36 (KHTML, like Gecko) Chrome/129.0.0.0 Safari/537.36 Edg/129.0.0.0" version="24.7.17">
  <diagram name="第 1 页" id="5yj743W3PWXgBj-xQnoX">
    <mxGraphModel dx="8790" dy="5540" grid="1" gridSize="10" guides="1" tooltips="1" connect="1" arrows="1" fold="1" page="1" pageScale="1" pageWidth="827" pageHeight="1169" math="0" shadow="0">
      <root>
        <mxCell id="0" />
        <mxCell id="1" parent="0" />
        <mxCell id="ulbORYLSHq138kg4GUdA-19" value="" style="rounded=0;whiteSpace=wrap;html=1;rotation=-40;" parent="1" vertex="1">
          <mxGeometry x="1000" y="410" width="430" height="190" as="geometry" />
        </mxCell>
        <mxCell id="YATunz6LuZnl2APo-tTB-1" value="" style="endArrow=classic;html=1;rounded=0;strokeColor=#FF3333;strokeWidth=6;endSize=24;dashed=1;" parent="1" edge="1">
          <mxGeometry width="50" height="50" relative="1" as="geometry">
            <mxPoint x="470" y="770" as="sourcePoint" />
            <mxPoint x="1440" y="770" as="targetPoint" />
          </mxGeometry>
        </mxCell>
        <mxCell id="YATunz6LuZnl2APo-tTB-3" value="" style="endArrow=classic;html=1;rounded=0;strokeColor=#00CC00;strokeWidth=6;endSize=24;dashed=1;" parent="1" edge="1">
          <mxGeometry width="50" height="50" relative="1" as="geometry">
            <mxPoint x="760" y="443" as="sourcePoint" />
            <mxPoint x="760" y="1273" as="targetPoint" />
          </mxGeometry>
        </mxCell>
        <mxCell id="YATunz6LuZnl2APo-tTB-5" value="&lt;font style=&quot;font-size: 40px;&quot;&gt;图像坐标系X+方向&lt;/font&gt;" style="text;html=1;align=center;verticalAlign=middle;whiteSpace=wrap;rounded=0;fontSize=24;fontColor=#FF3333;fontStyle=1" parent="1" vertex="1">
          <mxGeometry x="1070" y="800" width="380" height="30" as="geometry" />
        </mxCell>
        <mxCell id="YATunz6LuZnl2APo-tTB-6" value="&lt;font style=&quot;font-size: 40px;&quot;&gt;图像坐标系Y+方向&lt;/font&gt;" style="text;html=1;align=center;verticalAlign=middle;whiteSpace=wrap;rounded=0;fontSize=24;fontColor=#00CC00;rotation=-90;fontStyle=1" parent="1" vertex="1">
          <mxGeometry x="520" y="1020" width="400" height="110" as="geometry" />
        </mxCell>
        <mxCell id="ulbORYLSHq138kg4GUdA-1" value="" style="endArrow=none;html=1;rounded=0;strokeColor=#007FFF;strokeWidth=6;endSize=24;endFill=0;" parent="1" edge="1">
          <mxGeometry width="50" height="50" relative="1" as="geometry">
            <mxPoint x="470" y="1020" as="sourcePoint" />
            <mxPoint x="1390" y="230" as="targetPoint" />
          </mxGeometry>
        </mxCell>
        <mxCell id="ulbORYLSHq138kg4GUdA-3" value="&lt;font color=&quot;#007fff&quot; style=&quot;font-size: 40px;&quot;&gt;物体长边&lt;/font&gt;" style="text;html=1;align=center;verticalAlign=middle;whiteSpace=wrap;rounded=0;fontSize=24;fontColor=#FF3333;fontStyle=1;rotation=-40;" parent="1" vertex="1">
          <mxGeometry x="940" y="380" width="380" height="30" as="geometry" />
        </mxCell>
        <mxCell id="ulbORYLSHq138kg4GUdA-23" value="" style="endArrow=classic;html=1;rounded=0;strokeColor=#000000;strokeWidth=6;endSize=24;" parent="1" edge="1">
          <mxGeometry width="50" height="50" relative="1" as="geometry">
            <mxPoint x="1150" y="565" as="sourcePoint" />
            <mxPoint x="1300" y="440" as="targetPoint" />
          </mxGeometry>
        </mxCell>
        <mxCell id="ulbORYLSHq138kg4GUdA-24" value="&lt;font color=&quot;#000000&quot; style=&quot;font-size: 40px;&quot;&gt;长方形物体X+方向&lt;/font&gt;" style="text;html=1;align=center;verticalAlign=middle;whiteSpace=wrap;rounded=0;fontSize=24;fontColor=#FF3333;fontStyle=1;rotation=-40;" parent="1" vertex="1">
          <mxGeometry x="1070" y="530" width="380" height="30" as="geometry" />
        </mxCell>
        <mxCell id="ulbORYLSHq138kg4GUdA-34" value="" style="rounded=0;whiteSpace=wrap;html=1;rotation=35;" parent="1" vertex="1">
          <mxGeometry x="2537" y="977" width="430" height="190" as="geometry" />
        </mxCell>
        <mxCell id="ulbORYLSHq138kg4GUdA-35" value="" style="endArrow=classic;html=1;rounded=0;strokeColor=#FF3333;strokeWidth=6;endSize=24;dashed=1;" parent="1" edge="1">
          <mxGeometry width="50" height="50" relative="1" as="geometry">
            <mxPoint x="1910" y="797" as="sourcePoint" />
            <mxPoint x="2880" y="797" as="targetPoint" />
          </mxGeometry>
        </mxCell>
        <mxCell id="ulbORYLSHq138kg4GUdA-36" value="" style="endArrow=classic;html=1;rounded=0;strokeColor=#00CC00;strokeWidth=6;endSize=24;dashed=1;" parent="1" edge="1">
          <mxGeometry width="50" height="50" relative="1" as="geometry">
            <mxPoint x="2200" y="470" as="sourcePoint" />
            <mxPoint x="2200" y="1300" as="targetPoint" />
          </mxGeometry>
        </mxCell>
        <mxCell id="ulbORYLSHq138kg4GUdA-37" value="&lt;font style=&quot;font-size: 40px;&quot;&gt;图像坐标系X+方向&lt;/font&gt;" style="text;html=1;align=center;verticalAlign=middle;whiteSpace=wrap;rounded=0;fontSize=24;fontColor=#FF3333;fontStyle=1" parent="1" vertex="1">
          <mxGeometry x="2510" y="827" width="380" height="30" as="geometry" />
        </mxCell>
        <mxCell id="ulbORYLSHq138kg4GUdA-38" value="&lt;font style=&quot;font-size: 40px;&quot;&gt;图像坐标系Y+方向&lt;/font&gt;" style="text;html=1;align=center;verticalAlign=middle;whiteSpace=wrap;rounded=0;fontSize=24;fontColor=#00CC00;rotation=-90;fontStyle=1" parent="1" vertex="1">
          <mxGeometry x="1960" y="1047" width="400" height="110" as="geometry" />
        </mxCell>
        <mxCell id="ulbORYLSHq138kg4GUdA-39" value="" style="endArrow=none;html=1;rounded=0;strokeColor=#007FFF;strokeWidth=6;endSize=24;endFill=0;" parent="1" edge="1">
          <mxGeometry width="50" height="50" relative="1" as="geometry">
            <mxPoint x="1890" y="577" as="sourcePoint" />
            <mxPoint x="2860" y="1267" as="targetPoint" />
          </mxGeometry>
        </mxCell>
        <mxCell id="ulbORYLSHq138kg4GUdA-40" value="&lt;font color=&quot;#007fff&quot; style=&quot;font-size: 40px;&quot;&gt;物体长边&lt;/font&gt;" style="text;html=1;align=center;verticalAlign=middle;whiteSpace=wrap;rounded=0;fontSize=24;fontColor=#FF3333;fontStyle=1;rotation=35;" parent="1" vertex="1">
          <mxGeometry x="2460" y="1157" width="380" height="30" as="geometry" />
        </mxCell>
        <mxCell id="ulbORYLSHq138kg4GUdA-44" value="" style="group;rotation=75;" parent="1" vertex="1" connectable="0">
          <mxGeometry x="2579.9997416620963" y="966.9996875127729" width="310.3805166758075" height="267.24062497445425" as="geometry" />
        </mxCell>
        <mxCell id="ulbORYLSHq138kg4GUdA-41" value="" style="endArrow=classic;html=1;rounded=0;strokeColor=#000000;strokeWidth=6;endSize=24;" parent="ulbORYLSHq138kg4GUdA-44" edge="1">
          <mxGeometry width="50" height="50" relative="1" as="geometry">
            <mxPoint x="107" y="32" as="sourcePoint" />
            <mxPoint x="267" y="146" as="targetPoint" />
          </mxGeometry>
        </mxCell>
        <mxCell id="ulbORYLSHq138kg4GUdA-42" value="&lt;font color=&quot;#000000&quot; style=&quot;font-size: 40px;&quot;&gt;长方形物体X+方向&lt;/font&gt;" style="text;html=1;align=center;verticalAlign=middle;whiteSpace=wrap;rounded=0;fontSize=24;fontColor=#FF3333;fontStyle=1;rotation=35;" parent="ulbORYLSHq138kg4GUdA-44" vertex="1">
          <mxGeometry x="-35" y="119" width="380" height="30" as="geometry" />
        </mxCell>
      </root>
    </mxGraphModel>
  </diagram>
</mxfile>
